<?xml version="1.0" encoding="UTF-8"?>
<svg width="120" height="40" viewBox="0 0 120 40" fill="none" xmlns="http://www.w3.org/2000/svg">
  <rect width="120" height="40" rx="5" fill="black"/>
  <path d="M24.77 20.3C27.14 20.3 29.09 18.35 29.09 15.98C29.09 13.61 27.14 11.66 24.77 11.66C22.4 11.66 20.45 13.61 20.45 15.98C20.45 18.35 22.4 20.3 24.77 20.3Z" fill="white"/>
  <path d="M24.77 22.74C21.58 22.74 15.2 24.34 15.2 27.53V30H34.34V27.53C34.34 24.34 27.96 22.74 24.77 22.74Z" fill="white"/>
  <path d="M40.5 19.66H37.84V28.78H40.5V19.66Z" fill="white"/>
  <path d="M39.17 11.66C38.27 11.66 37.54 12.39 37.54 13.29C37.54 14.19 38.27 14.92 39.17 14.92C40.07 14.92 40.8 14.19 40.8 13.29C40.8 12.39 40.07 11.66 39.17 11.66Z" fill="white"/>
  <path d="M47.49 19.66H44.95V18.39H44.89C44.41 19.18 43.39 19.96 41.94 19.96C39.59 19.96 38.45 18.15 38.45 15.92V15.86V11.96H41.11V15.32C41.11 16.58 41.47 17.47 42.6 17.47C43.73 17.47 44.83 16.58 44.83 14.8V11.96H47.49V19.66Z" fill="white"/>
  <path d="M48.8 19.66V11.96H51.46V19.66H48.8ZM50.13 10.7C49.23 10.7 48.5 9.97 48.5 9.07C48.5 8.17 49.23 7.44 50.13 7.44C51.03 7.44 51.76 8.17 51.76 9.07C51.76 9.97 51.03 10.7 50.13 10.7Z" fill="white"/>
  <path d="M59.46 28.78H56.8V19.36H56.74C56.26 20.15 55.24 20.93 53.79 20.93C51.44 20.93 49.6 18.81 49.6 15.86C49.6 12.91 51.44 10.7 53.79 10.7C55.24 10.7 56.26 11.48 56.74 12.27H56.8V11.96H59.46V28.78ZM54.57 18.27C55.9 18.27 56.8 17.17 56.8 15.86C56.8 14.55 55.9 13.36 54.57 13.36C53.24 13.36 52.34 14.55 52.34 15.86C52.34 17.17 53.24 18.27 54.57 18.27Z" fill="white"/>
  <path d="M60.77 19.66V11.96H63.43V19.66H60.77ZM62.1 10.7C61.2 10.7 60.47 9.97 60.47 9.07C60.47 8.17 61.2 7.44 62.1 7.44C63 7.44 63.73 8.17 63.73 9.07C63.73 9.97 63 10.7 62.1 10.7Z" fill="white"/>
  <path d="M71.39 15.86C71.39 13.42 70.01 11.66 67.6 11.66C65.19 11.66 63.81 13.42 63.81 15.86C63.81 18.3 65.19 20.06 67.6 20.06C70.01 20.06 71.39 18.3 71.39 15.86ZM68.74 15.86C68.74 17.11 68.32 17.89 67.6 17.89C66.88 17.89 66.46 17.11 66.46 15.86C66.46 14.61 66.88 13.83 67.6 13.83C68.32 13.83 68.74 14.61 68.74 15.86Z" fill="white"/>
  <path d="M72.7 19.66V11.96H75.36V13.23H75.42C75.9 12.44 76.92 11.66 78.37 11.66C80.72 11.66 81.86 13.47 81.86 15.7V15.76V19.66H79.2V16.3C79.2 15.04 78.84 14.15 77.71 14.15C76.58 14.15 75.48 15.04 75.48 16.82V19.66H72.7Z" fill="white"/>
  <path d="M89.46 19.66H86.92V18.39H86.86C86.38 19.18 85.36 19.96 83.91 19.96C81.56 19.96 80.42 18.15 80.42 15.92V15.86V11.96H83.08V15.32C83.08 16.58 83.44 17.47 84.57 17.47C85.7 17.47 86.8 16.58 86.8 14.8V11.96H89.46V19.66Z" fill="white"/>
  <path d="M96.45 14.43C96.33 13.83 95.91 13.53 95.31 13.53C94.71 13.53 94.17 13.83 94.17 14.43C94.17 14.91 94.59 15.16 95.19 15.34L96.09 15.64C97.7 16.12 98.6 16.94 98.6 18.45C98.6 20.27 96.99 20.93 95.25 20.93C93.51 20.93 91.9 20.27 91.6 18.45H94.05C94.23 19.11 94.77 19.36 95.37 19.36C95.97 19.36 96.51 19.06 96.51 18.45C96.51 17.95 96.09 17.71 95.37 17.47L94.47 17.17C92.98 16.7 92.08 15.88 92.08 14.43C92.08 12.67 93.63 11.96 95.25 11.96C96.87 11.96 98.3 12.67 98.54 14.43H96.45Z" fill="white"/>
  <path d="M104.25 19.66H101.71V18.39H101.65C101.17 19.18 100.15 19.96 98.7 19.96C96.35 19.96 95.21 18.15 95.21 15.92V15.86V11.96H97.87V15.32C97.87 16.58 98.23 17.47 99.36 17.47C100.49 17.47 101.59 16.58 101.59 14.8V11.96H104.25V19.66Z" fill="white"/>
  <path d="M105.56 19.66V11.96H108.22V19.66H105.56ZM106.89 10.7C105.99 10.7 105.26 9.97 105.26 9.07C105.26 8.17 105.99 7.44 106.89 7.44C107.79 7.44 108.52 8.17 108.52 9.07C108.52 9.97 107.79 10.7 106.89 10.7Z" fill="white"/>
  <path d="M109.53 19.66V11.96H112.19V13.23H112.25C112.73 12.44 113.75 11.66 115.2 11.66C117.55 11.66 118.69 13.47 118.69 15.7V15.76V19.66H116.03V16.3C116.03 15.04 115.67 14.15 114.54 14.15C113.41 14.15 112.31 15.04 112.31 16.82V19.66H109.53Z" fill="white"/>
</svg>
