<?xml version="1.0" encoding="UTF-8"?>
<svg width="135" height="40" viewBox="0 0 135 40" fill="none" xmlns="http://www.w3.org/2000/svg">
  <rect width="135" height="40" rx="5" fill="black"/>
  <path d="M47.42 10.24C47.42 11.3 47.17 12.12 46.66 12.68C46.08 13.33 45.29 13.66 44.31 13.66C43.37 13.66 42.57 13.33 41.94 12.68C41.3 12.02 40.98 11.19 40.98 10.18C40.98 9.17 41.3 8.34 41.94 7.69C42.57 7.03 43.37 6.7 44.31 6.7C44.76 6.7 45.2 6.79 45.61 6.96C46.02 7.14 46.35 7.38 46.61 7.69L46.01 8.29C45.6 7.81 45.04 7.57 44.31 7.57C43.63 7.57 43.05 7.81 42.56 8.29C42.08 8.77 41.84 9.4 41.84 10.18C41.84 10.96 42.08 11.59 42.56 12.07C43.05 12.55 43.63 12.79 44.31 12.79C45.04 12.79 45.62 12.55 46.08 12.07C46.38 11.77 46.56 11.34 46.62 10.79H44.31V9.95H47.36C47.4 10.05 47.42 10.15 47.42 10.24Z" fill="white"/>
  <path d="M52.24 7.74H49.56V9.82H51.97V10.66H49.56V12.74H52.24V13.6H48.7V6.88H52.24V7.74Z" fill="white"/>
  <path d="M55.28 13.6H54.42V7.74H52.72V6.88H56.98V7.74H55.28V13.6Z" fill="white"/>
  <path d="M60.95 13.6V6.88H61.81V13.6H60.95Z" fill="white"/>
  <path d="M65.84 13.6H64.98V7.74H63.28V6.88H67.54V7.74H65.84V13.6Z" fill="white"/>
  <path d="M76.25 12.67C75.63 13.33 74.83 13.66 73.86 13.66C72.88 13.66 72.08 13.33 71.46 12.67C70.84 12.02 70.53 11.19 70.53 10.18C70.53 9.17 70.84 8.34 71.46 7.69C72.08 7.03 72.88 6.7 73.86 6.7C74.83 6.7 75.63 7.03 76.25 7.69C76.87 8.34 77.18 9.17 77.18 10.18C77.18 11.19 76.87 12.02 76.25 12.67ZM72.08 12.07C72.55 12.55 73.14 12.79 73.86 12.79C74.57 12.79 75.16 12.55 75.64 12.07C76.11 11.59 76.35 10.96 76.35 10.18C76.35 9.4 76.11 8.77 75.64 8.29C75.16 7.81 74.57 7.57 73.86 7.57C73.14 7.57 72.55 7.81 72.08 8.29C71.6 8.77 71.36 9.4 71.36 10.18C71.36 10.96 71.6 11.59 72.08 12.07Z" fill="white"/>
  <path d="M78.23 13.6V6.88H79.27L82.28 12.19H82.31L82.28 10.18V6.88H83.14V13.6H82.25L79.09 8.04H79.06L79.09 10.05V13.6H78.23Z" fill="white"/>
  <path d="M45.29 21.34C42.76 21.34 40.71 23.26 40.71 25.96C40.71 28.65 42.76 30.58 45.29 30.58C47.82 30.58 49.87 28.65 49.87 25.96C49.87 23.26 47.82 21.34 45.29 21.34ZM45.29 28.83C43.9 28.83 42.6 27.67 42.6 25.96C42.6 24.24 43.9 23.09 45.29 23.09C46.68 23.09 47.98 24.24 47.98 25.96C47.98 27.67 46.68 28.83 45.29 28.83ZM39.11 21.34C36.58 21.34 34.53 23.26 34.53 25.96C34.53 28.65 36.58 30.58 39.11 30.58C41.64 30.58 43.69 28.65 43.69 25.96C43.69 23.26 41.64 21.34 39.11 21.34ZM39.11 28.83C37.72 28.83 36.42 27.67 36.42 25.96C36.42 24.24 37.72 23.09 39.11 23.09C40.5 23.09 41.8 24.24 41.8 25.96C41.8 27.67 40.5 28.83 39.11 28.83ZM31.52 22.73V24.6H35.96C35.84 25.6 35.52 26.33 35.02 26.83C34.4 27.45 33.46 28.12 31.52 28.12C28.64 28.12 26.42 25.82 26.42 22.94C26.42 20.06 28.64 17.76 31.52 17.76C33.05 17.76 34.17 18.38 34.99 19.15L36.3 17.85C35.17 16.76 33.64 15.92 31.52 15.92C27.67 15.92 24.42 19.06 24.42 22.94C24.42 26.82 27.67 29.96 31.52 29.96C33.58 29.96 35.17 29.29 36.42 27.97C37.7 26.7 38.08 24.91 38.08 23.44C38.08 23 38.05 22.59 37.99 22.24H31.52V22.73ZM61.21 23.94C60.8 22.97 59.74 21.34 57.68 21.34C55.65 21.34 53.89 23.18 53.89 25.96C53.89 28.59 55.62 30.58 57.89 30.58C59.71 30.58 60.8 29.38 61.3 28.65L59.83 27.65C59.3 28.38 58.71 28.83 57.89 28.83C57.06 28.83 56.45 28.47 56.03 27.47L61.36 25.12L61.21 23.94ZM55.74 26.06C55.71 24.21 57.15 23.06 57.74 23.06C58.21 23.06 58.62 23.29 58.77 23.62L55.74 26.06ZM54.33 30.29H56.21V16.5H54.33V30.29ZM52.36 22.35H52.3C51.89 21.85 51.09 21.34 50.06 21.34C48.09 21.34 46.24 23.12 46.24 25.97C46.24 28.8 48.09 30.58 50.06 30.58C51.09 30.58 51.89 30.06 52.3 29.56H52.36V30.15C52.36 31.82 51.51 32.67 50.09 32.67C48.92 32.67 48.21 31.85 47.92 31.17L46.27 31.88C46.74 32.97 48.03 34.41 50.09 34.41C52.3 34.41 54.15 33.09 54.15 29.91V21.62H52.36V22.35ZM50.21 28.83C48.83 28.83 47.62 27.65 47.62 25.97C47.62 24.27 48.83 23.09 50.21 23.09C51.57 23.09 52.68 24.27 52.68 25.97C52.68 27.65 51.57 28.83 50.21 28.83ZM66.45 16.5H62.5V30.29H64.38V25.09H66.45C68.38 25.09 70.26 23.71 70.26 20.8C70.26 17.88 68.35 16.5 66.45 16.5ZM66.5 23.32H64.38V18.26H66.5C67.82 18.26 68.38 19.56 68.38 20.79C68.38 22 67.79 23.32 66.5 23.32ZM77.42 21.32C76.12 21.32 74.77 21.91 74.21 23.26L75.89 24C76.24 23.26 76.83 23.06 77.45 23.06C78.33 23.06 79.24 23.59 79.27 24.53V24.68C78.92 24.47 78.18 24.18 77.48 24.18C75.86 24.18 74.21 25.06 74.21 26.71C74.21 28.21 75.54 29.18 76.98 29.18C78.09 29.18 78.8 28.65 79.24 28.03H79.3V29H81.12V24.71C81.12 22.65 79.51 21.32 77.42 21.32ZM77.24 27.47C76.68 27.47 75.98 27.18 75.98 26.65C75.98 25.97 76.83 25.65 77.57 25.65C78.21 25.65 78.54 25.8 78.98 25.97C78.86 26.88 78.09 27.47 77.24 27.47ZM88.71 21.62L86.56 27.32H86.5L84.27 21.62H82.27L85.56 29.65L83.65 33.85H85.59L90.77 21.62H88.71ZM76.68 30.29H78.56V16.5H76.68V30.29Z" fill="white"/>
  <path fill-rule="evenodd" clip-rule="evenodd" d="M10.44 7.54C10.17 7.83 10.01 8.27 10.01 8.83V31.17C10.01 31.73 10.17 32.17 10.44 32.46L10.51 32.52L23.4 19.63V19.37L10.51 6.48L10.44 7.54Z" fill="url(#paint0_linear_0_1)"/>
  <path fill-rule="evenodd" clip-rule="evenodd" d="M27.56 23.78L23.4 19.63V19.37L27.56 15.22L27.65 15.28L32.53 18.02C33.93 18.8 33.93 20.2 32.53 20.98L27.65 23.72L27.56 23.78Z" fill="url(#paint1_linear_0_1)"/>
  <path fill-rule="evenodd" clip-rule="evenodd" d="M27.65 23.72L23.4 19.5L10.44 32.46C10.9 32.94 11.65 33 12.47 32.52L27.65 23.72Z" fill="url(#paint2_linear_0_1)"/>
  <path fill-rule="evenodd" clip-rule="evenodd" d="M27.65 15.28L12.47 6.48C11.65 6 10.9 6.06 10.44 6.54L23.4 19.5L27.65 15.28Z" fill="url(#paint3_linear_0_1)"/>
  <defs>
    <linearGradient id="paint0_linear_0_1" x1="22.1" y1="8.71" x2="3.84" y2="26.98" gradientUnits="userSpaceOnUse">
      <stop stop-color="#00A0FF"/>
      <stop offset="0.01" stop-color="#00A1FF"/>
      <stop offset="0.26" stop-color="#00BEFF"/>
      <stop offset="0.51" stop-color="#00D2FF"/>
      <stop offset="0.76" stop-color="#00DFFF"/>
      <stop offset="1" stop-color="#00E3FF"/>
    </linearGradient>
    <linearGradient id="paint1_linear_0_1" x1="34.18" y1="19.5" x2="9.95" y2="19.5" gradientUnits="userSpaceOnUse">
      <stop stop-color="#FFE000"/>
      <stop offset="0.41" stop-color="#FFBD00"/>
      <stop offset="0.78" stop-color="#FFA500"/>
      <stop offset="1" stop-color="#FF9C00"/>
    </linearGradient>
    <linearGradient id="paint2_linear_0_1" x1="25.79" y1="21.35" x2="1.64" y2="45.51" gradientUnits="userSpaceOnUse">
      <stop stop-color="#FF3A44"/>
      <stop offset="1" stop-color="#C31162"/>
    </linearGradient>
    <linearGradient id="paint3_linear_0_1" x1="7.3" y1="0.18" x2="17.46" y2="10.34" gradientUnits="userSpaceOnUse">
      <stop stop-color="#32A071"/>
      <stop offset="0.07" stop-color="#2DA771"/>
      <stop offset="0.48" stop-color="#15CF74"/>
      <stop offset="0.8" stop-color="#06E775"/>
      <stop offset="1" stop-color="#00F076"/>
    </linearGradient>
  </defs>
</svg>
