<?xml version="1.0" encoding="UTF-8"?>
<svg width="120" height="40" viewBox="0 0 120 40" fill="none" xmlns="http://www.w3.org/2000/svg">
  <path d="M10.5 8C6.91015 8 4 10.9101 4 14.5V25.5C4 29.0899 6.91015 32 10.5 32H29.5C33.0899 32 36 29.0899 36 25.5V14.5C36 10.9101 33.0899 8 29.5 8H10.5Z" fill="#FF6B81"/>
  <path d="M20 12C15.0294 12 11 16.0294 11 21C11 25.9706 15.0294 30 20 30C24.9706 30 29 25.9706 29 21C29 16.0294 24.9706 12 20 12ZM17 19C17.5523 19 18 19.4477 18 20C18 20.5523 17.5523 21 17 21C16.4477 21 16 20.5523 16 20C16 19.4477 16.4477 19 17 19ZM20 19C20.5523 19 21 19.4477 21 20C21 20.5523 20.5523 21 20 21C19.4477 21 19 20.5523 19 20C19 19.4477 19.4477 19 20 19ZM23 19C23.5523 19 24 19.4477 24 20C24 20.5523 23.5523 21 23 21C22.4477 21 22 20.5523 22 20C22 19.4477 22.4477 19 23 19Z" fill="white"/>
  <path d="M44.9688 24V15.0938H47.0625V22.2656H51.0469V24H44.9688ZM55.5781 24.1406C54.7031 24.1406 53.9844 23.9375 53.4219 23.5312C52.8594 23.125 52.4375 22.5625 52.1562 21.8438C51.8802 21.1198 51.7422 20.2969 51.7422 19.375C51.7422 18.4583 51.8802 17.6406 52.1562 16.9219C52.4375 16.1979 52.8594 15.6328 53.4219 15.2266C53.9844 14.8203 54.7031 14.6172 55.5781 14.6172C56.4531 14.6172 57.1719 14.8203 57.7344 15.2266C58.2969 15.6328 58.7161 16.1979 58.9922 16.9219C59.2734 17.6406 59.4141 18.4583 59.4141 19.375C59.4141 20.2969 59.2734 21.1198 58.9922 21.8438C58.7161 22.5625 58.2969 23.125 57.7344 23.5312C57.1719 23.9375 56.4531 24.1406 55.5781 24.1406ZM55.5781 22.4062C56.1406 22.4062 56.5729 22.2344 56.875 21.8906C57.1771 21.5469 57.3906 21.1094 57.5156 20.5781C57.6458 20.0417 57.7109 19.4583 57.7109 18.8281C57.7109 18.2031 57.6458 17.625 57.5156 17.0938C57.3906 16.5573 57.1771 16.1172 56.875 15.7734C56.5729 15.4297 56.1406 15.2578 55.5781 15.2578C55.0156 15.2578 54.5833 15.4297 54.2812 15.7734C53.9792 16.1172 53.763 16.5573 53.6328 17.0938C53.5078 17.625 53.4453 18.2031 53.4453 18.8281C53.4453 19.4583 53.5078 20.0417 53.6328 20.5781C53.763 21.1094 53.9792 21.5469 54.2812 21.8906C54.5833 22.2344 55.0156 22.4062 55.5781 22.4062ZM64.5469 24.1406C63.6719 24.1406 62.9531 23.9375 62.3906 23.5312C61.8281 23.125 61.4062 22.5625 61.125 21.8438C60.849 21.1198 60.7109 20.2969 60.7109 19.375C60.7109 18.4583 60.849 17.6406 61.125 16.9219C61.4062 16.1979 61.8281 15.6328 62.3906 15.2266C62.9531 14.8203 63.6719 14.6172 64.5469 14.6172C65.4219 14.6172 66.1406 14.8203 66.7031 15.2266C67.2656 15.6328 67.6849 16.1979 67.9609 16.9219C68.2422 17.6406 68.3828 18.4583 68.3828 19.375C68.3828 20.2969 68.2422 21.1198 67.9609 21.8438C67.6849 22.5625 67.2656 23.125 66.7031 23.5312C66.1406 23.9375 65.4219 24.1406 64.5469 24.1406ZM64.5469 22.4062C65.1094 22.4062 65.5417 22.2344 65.8438 21.8906C66.1458 21.5469 66.3594 21.1094 66.4844 20.5781C66.6146 20.0417 66.6797 19.4583 66.6797 18.8281C66.6797 18.2031 66.6146 17.625 66.4844 17.0938C66.3594 16.5573 66.1458 16.1172 65.8438 15.7734C65.5417 15.4297 65.1094 15.2578 64.5469 15.2578C63.9844 15.2578 63.5521 15.4297 63.25 15.7734C62.9479 16.1172 62.7318 16.5573 62.6016 17.0938C62.4766 17.625 62.4141 18.2031 62.4141 18.8281C62.4141 19.4583 62.4766 20.0417 62.6016 20.5781C62.7318 21.1094 62.9479 21.5469 63.25 21.8906C63.5521 22.2344 63.9844 22.4062 64.5469 22.4062ZM70.0859 24V15.0938H71.7891V24H70.0859ZM76.9219 24.1406C76.0469 24.1406 75.3281 23.9375 74.7656 23.5312C74.2031 23.125 73.7812 22.5625 73.5 21.8438C73.224 21.1198 73.0859 20.2969 73.0859 19.375C73.0859 18.4583 73.224 17.6406 73.5 16.9219C73.7812 16.1979 74.2031 15.6328 74.7656 15.2266C75.3281 14.8203 76.0469 14.6172 76.9219 14.6172C77.7969 14.6172 78.5156 14.8203 79.0781 15.2266C79.6406 15.6328 80.0599 16.1979 80.3359 16.9219C80.6172 17.6406 80.7578 18.4583 80.7578 19.375C80.7578 20.2969 80.6172 21.1198 80.3359 21.8438C80.0599 22.5625 79.6406 23.125 79.0781 23.5312C78.5156 23.9375 77.7969 24.1406 76.9219 24.1406ZM76.9219 22.4062C77.4844 22.4062 77.9167 22.2344 78.2188 21.8906C78.5208 21.5469 78.7344 21.1094 78.8594 20.5781C78.9896 20.0417 79.0547 19.4583 79.0547 18.8281C79.0547 18.2031 78.9896 17.625 78.8594 17.0938C78.7344 16.5573 78.5208 16.1172 78.2188 15.7734C77.9167 15.4297 77.4844 15.2578 76.9219 15.2578C76.3594 15.2578 75.9271 15.4297 75.625 15.7734C75.3229 16.1172 75.1068 16.5573 74.9766 17.0938C74.8516 17.625 74.7891 18.2031 74.7891 18.8281C74.7891 19.4583 74.8516 20.0417 74.9766 20.5781C75.1068 21.1094 75.3229 21.5469 75.625 21.8906C75.9271 22.2344 76.3594 22.4062 76.9219 22.4062ZM82.4609 24V15.0938H84.1641V24H82.4609ZM89.2969 24.1406C88.4219 24.1406 87.7031 23.9375 87.1406 23.5312C86.5781 23.125 86.1562 22.5625 85.875 21.8438C85.599 21.1198 85.4609 20.2969 85.4609 19.375C85.4609 18.4583 85.599 17.6406 85.875 16.9219C86.1562 16.1979 86.5781 15.6328 87.1406 15.2266C87.7031 14.8203 88.4219 14.6172 89.2969 14.6172C90.1719 14.6172 90.8906 14.8203 91.4531 15.2266C92.0156 15.6328 92.4349 16.1979 92.7109 16.9219C92.9922 17.6406 93.1328 18.4583 93.1328 19.375C93.1328 20.2969 92.9922 21.1198 92.7109 21.8438C92.4349 22.5625 92.0156 23.125 91.4531 23.5312C90.8906 23.9375 90.1719 24.1406 89.2969 24.1406ZM89.2969 22.4062C89.8594 22.4062 90.2917 22.2344 90.5938 21.8906C90.8958 21.5469 91.1094 21.1094 91.2344 20.5781C91.3646 20.0417 91.4297 19.4583 91.4297 18.8281C91.4297 18.2031 91.3646 17.625 91.2344 17.0938C91.1094 16.5573 90.8958 16.1172 90.5938 15.7734C90.2917 15.4297 89.8594 15.2578 89.2969 15.2578C88.7344 15.2578 88.3021 15.4297 88 15.7734C87.6979 16.1172 87.4818 16.5573 87.3516 17.0938C87.2266 17.625 87.1641 18.2031 87.1641 18.8281C87.1641 19.4583 87.2266 20.0417 87.3516 20.5781C87.4818 21.1094 87.6979 21.5469 88 21.8906C88.3021 22.2344 88.7344 22.4062 89.2969 22.4062ZM94.8359 24V15.0938H96.5391V24H94.8359ZM101.672 24.1406C100.797 24.1406 100.078 23.9375 99.5156 23.5312C98.9531 23.125 98.5312 22.5625 98.25 21.8438C97.974 21.1198 97.8359 20.2969 97.8359 19.375C97.8359 18.4583 97.974 17.6406 98.25 16.9219C98.5312 16.1979 98.9531 15.6328 99.5156 15.2266C100.078 14.8203 100.797 14.6172 101.672 14.6172C102.547 14.6172 103.266 14.8203 103.828 15.2266C104.391 15.6328 104.81 16.1979 105.086 16.9219C105.367 17.6406 105.508 18.4583 105.508 19.375C105.508 20.2969 105.367 21.1198 105.086 21.8438C104.81 22.5625 104.391 23.125 103.828 23.5312C103.266 23.9375 102.547 24.1406 101.672 24.1406ZM101.672 22.4062C102.234 22.4062 102.667 22.2344 102.969 21.8906C103.271 21.5469 103.484 21.1094 103.609 20.5781C103.74 20.0417 103.805 19.4583 103.805 18.8281C103.805 18.2031 103.74 17.625 103.609 17.0938C103.484 16.5573 103.271 16.1172 102.969 15.7734C102.667 15.4297 102.234 15.2578 101.672 15.2578C101.109 15.2578 100.677 15.4297 100.375 15.7734C100.073 16.1172 99.8568 16.5573 99.7266 17.0938C99.6016 17.625 99.5391 18.2031 99.5391 18.8281C99.5391 19.4583 99.6016 20.0417 99.7266 20.5781C99.8568 21.1094 100.073 21.5469 100.375 21.8906C100.677 22.2344 101.109 22.4062 101.672 22.4062ZM107.211 24V15.0938H108.914V24H107.211Z" fill="#FF6B81"/>
</svg>
