<?xml version="1.0" encoding="UTF-8"?>
<svg width="120" height="40" viewBox="0 0 120 40" fill="none" xmlns="http://www.w3.org/2000/svg">
  <path d="M60 20C60 31.0457 51.0457 40 40 40H10C4.47715 40 0 35.5228 0 30V10C0 4.47715 4.47715 0 10 0H40C51.0457 0 60 8.95431 60 20Z" fill="#F0F0F0"/>
  <path d="M120 20C120 31.0457 111.046 40 100 40H70C64.4772 40 60 35.5228 60 30V10C60 4.47715 64.4772 0 70 0H100C111.046 0 120 8.95431 120 20Z" fill="#F0F0F0"/>
  <path d="M30 10L35 20L30 30L25 20L30 10Z" fill="#FF6B81"/>
  <path d="M90 10L95 20L90 30L85 20L90 10Z" fill="#FF6B81"/>
  <path d="M15 20H45V25H15V20Z" fill="#FF6B81"/>
  <path d="M75 20H105V25H75V20Z" fill="#FF6B81"/>
  <path d="M15 15H45V20H15V15Z" fill="#FF6B81"/>
  <path d="M75 15H105V20H75V15Z" fill="#FF6B81"/>
</svg>
